<?xml version="1.0" standalone="no"?>
<!DOCTYPE svg PUBLIC "-//W3C//DTD SVG 20010904//EN"
 "http://www.w3.org/TR/2001/REC-SVG-20010904/DTD/svg10.dtd">
<svg version="1.0" xmlns="http://www.w3.org/2000/svg"
 width="300.000000pt" height="300.000000pt" viewBox="0 0 300.000000 300.000000"
 preserveAspectRatio="xMidYMid meet">

<g transform="translate(0.000000,300.000000) scale(0.100000,-0.100000)"
fill="#000000" stroke="none">
<path d="M212 2818 c-9 -9 -12 -112 -12 -404 0 -348 2 -393 16 -398 9 -3 188
-6 399 -6 370 0 385 1 395 19 6 13 10 153 10 388 0 317 -2 372 -16 391 l-15
22 -383 0 c-284 0 -385 -3 -394 -12z m568 -238 l0 -60 -90 0 -90 0 0 -155 0
-155 -70 0 -70 0 0 208 c0 115 3 212 7 215 3 4 75 7 160 7 l153 0 0 -60z"/>
<path d="M1106 2814 c-14 -13 -16 -64 -16 -398 0 -284 3 -385 12 -394 17 -17
779 -17 796 0 9 9 12 110 12 394 0 334 -2 385 -16 398 -13 14 -63 16 -394 16
-331 0 -381 -2 -394 -16z m510 -197 c17 -8 47 -34 66 -55 95 -105 56 -277 -76
-338 -138 -64 -287 5 -327 151 -23 84 31 198 115 242 62 33 159 33 222 0z"/>
<path d="M1443 2496 c-23 -20 -28 -32 -28 -71 0 -40 5 -51 33 -76 40 -36 71
-37 111 -3 38 32 49 80 27 122 -30 57 -94 70 -143 28z"/>
<path d="M1996 2808 c-14 -19 -16 -74 -16 -391 0 -235 4 -375 10 -388 10 -18
25 -19 399 -19 311 0 391 3 400 13 16 20 16 774 0 793 -9 12 -78 14 -395 14
l-383 0 -15 -22z m601 -385 l3 -213 -70 0 -70 0 0 156 0 155 -35 -3 -36 -3 -4
-79 c-10 -177 -66 -249 -181 -231 -48 7 -51 15 -38 84 5 26 11 31 35 31 24 0
30 5 38 38 6 20 13 92 17 160 l7 122 166 -2 166 -3 2 -212z"/>
<path d="M223 1930 l-23 -9 0 -396 0 -395 26 -10 c15 -6 173 -9 393 -7 294 2
371 5 384 16 15 12 17 52 17 392 0 366 -1 380 -20 399 -19 19 -33 20 -387 19
-203 0 -378 -4 -390 -9z"/>
<path d="M1112 1924 l-22 -15 0 -382 c0 -223 4 -388 10 -397 8 -13 64 -15 400
-15 336 0 392 2 400 15 6 9 10 174 10 397 l0 382 -22 15 c-19 14 -73 16 -388
16 -315 0 -369 -2 -388 -16z m448 -304 l0 -50 45 0 45 0 0 -60 0 -60 -45 0
-45 0 0 -50 0 -50 -65 0 -65 0 0 50 0 50 -45 0 -45 0 0 60 0 60 45 0 45 0 0
50 0 50 65 0 65 0 0 -50z"/>
<path d="M2000 1920 c-19 -19 -20 -33 -20 -399 0 -340 2 -380 17 -392 13 -11
90 -14 384 -16 220 -2 378 1 393 7 l26 10 0 395 0 395 -26 10 c-15 6 -177 10
-390 10 -351 0 -365 -1 -384 -20z"/>
<path d="M212 1028 c-17 -17 -17 -779 0 -796 9 -9 110 -12 394 -12 334 0 385
2 398 16 14 13 16 62 16 384 0 215 -4 379 -10 394 l-10 26 -388 0 c-288 0
-391 -3 -400 -12z m598 -403 l0 -215 -70 0 -71 0 2 153 1 152 -56 3 -56 3 0
-156 0 -155 -70 0 -70 0 0 215 0 215 195 0 195 0 0 -215z"/>
<path d="M1102 1028 c-17 -17 -17 -779 0 -796 17 -17 779 -17 796 0 17 17 17
779 0 796 -17 17 -779 17 -796 0z m561 -396 c48 -114 87 -210 87 -215 0 -4
-31 -7 -70 -7 l-70 0 -14 35 -15 35 -71 0 -71 0 -15 -35 -14 -35 -70 0 c-39 0
-70 2 -70 4 0 2 34 84 76 182 42 99 82 194 89 212 14 31 15 32 77 32 l63 0 88
-208z"/>
<path d="M1496 630 c-14 -34 -14 -35 11 -38 34 -5 36 -1 19 39 l-15 34 -15
-35z"/>
<path d="M1990 1014 c-6 -15 -10 -179 -10 -394 0 -322 2 -371 16 -384 13 -14
64 -16 398 -16 284 0 385 3 394 12 17 17 17 779 0 796 -9 9 -112 12 -400 12
l-388 0 -10 -26z m528 -193 c36 -18 90 -68 81 -74 -2 -2 -24 -19 -49 -39 l-45
-36 -28 24 c-64 55 -147 15 -147 -70 0 -89 84 -133 145 -76 28 26 41 23 100
-26 l30 -25 -41 -38 c-108 -102 -282 -73 -349 59 -57 113 -14 243 100 303 44
23 156 22 203 -2z"/>
</g>
</svg>
